<svg width="57" height="34" viewBox="0 0 57 34" fill="none" xmlns="http://www.w3.org/2000/svg">
<path d="M52.0118 0C52.9686 0 53.8235 0.211765 54.5765 0.635294C55.3451 1.05882 55.9412 1.6549 56.3647 2.42353C56.7882 3.17647 57 4.03922 57 5.01176C57 5.96863 56.7882 6.82353 56.3647 7.57647C55.9412 8.32941 55.3451 8.92549 54.5765 9.3647C53.8235 9.78823 52.9686 10 52.0118 10C51.0549 10 50.1922 9.78823 49.4235 9.3647C48.6706 8.92549 48.0745 8.32941 47.6353 7.57647C47.2118 6.82353 47 5.96863 47 5.01176C47 4.03922 47.2118 3.17647 47.6353 2.42353C48.0745 1.6549 48.6706 1.05882 49.4235 0.635294C50.1922 0.211765 51.0549 0 52.0118 0ZM52.0118 8.8C53.1412 8.8 54.0431 8.4549 54.7176 7.76471C55.4078 7.05882 55.7529 6.14118 55.7529 5.01176C55.7529 3.86667 55.4078 2.94902 54.7176 2.25882C54.0431 1.55294 53.1412 1.2 52.0118 1.2C50.8824 1.2 49.9804 1.55294 49.3059 2.25882C48.6314 2.94902 48.2941 3.86667 48.2941 5.01176C48.2941 6.15686 48.6314 7.07451 49.3059 7.76471C49.9804 8.4549 50.8824 8.8 52.0118 8.8ZM54.2235 4.07059C54.2235 4.41569 54.1373 4.71373 53.9647 4.96471C53.8078 5.21569 53.5804 5.40392 53.2824 5.52941L54.5059 7.45882H52.6706L51.6588 5.69412H51.5176V7.45882H49.9412V2.42353H52.4118C52.9608 2.42353 53.4 2.58039 53.7294 2.89412C54.0588 3.19216 54.2235 3.58431 54.2235 4.07059ZM51.4941 4.51765H52.2471C52.3569 4.51765 52.451 4.48627 52.5294 4.42353C52.6078 4.36078 52.6471 4.26667 52.6471 4.14118C52.6471 3.90588 52.5137 3.78823 52.2471 3.78823H51.4941V4.51765Z" fill="black"/>
<path d="M1.49939 34V0.167535H10.6688C13.1293 0.167535 14.917 0.769855 16.032 1.9745C17.1597 3.16632 17.7236 5.13988 17.7236 7.89518V9.37535C17.7236 10.9644 17.4353 12.2524 16.8586 13.2392C16.2947 14.2259 15.4297 14.8731 14.2635 15.1807C15.7885 15.5652 16.8073 16.4686 17.3199 17.8911C17.8453 19.3008 18.1081 21.0245 18.1081 23.0621C18.1081 25.2535 17.903 27.1694 17.4929 28.8098C17.0828 30.4502 16.3395 31.7253 15.2631 32.6352C14.1866 33.5451 12.6551 34 10.6688 34H1.49939ZM8.1121 12.9124H9.49616C10.1241 12.9124 10.5278 12.6689 10.7072 12.1819C10.8866 11.6949 10.9763 11.1118 10.9763 10.4326V7.03014C10.9763 5.94084 10.4958 5.39619 9.5346 5.39619H8.1121V12.9124ZM8.78491 28.0409C10.5406 28.0409 11.4185 27.2079 11.4185 25.5419V21.3128C11.4185 20.3517 11.2711 19.5956 10.9763 19.0445C10.6944 18.4806 10.1561 18.1987 9.3616 18.1987H8.1121V28.0024C8.39404 28.0281 8.61831 28.0409 8.78491 28.0409ZM22.9907 34L19.3576 0.167535H25.9703L27.8349 21.5243L29.738 0.167535H36.0431L37.8501 21.5243L39.657 0.167535H46.3466L42.6558 34H34.5437L32.8521 17.7181L31.2374 34H22.9907Z" fill="black"/>
</svg>
